<?xml version="1.0" encoding="UTF-8"?>
<svg id="Layer_2" data-name="Layer 2" xmlns="http://www.w3.org/2000/svg" viewBox="0 0 408.67 408.65">
  <defs>
    <style>
      .cls-1 {
        fill: #fff;
        stroke-width: 0px;
      }
    </style>
  </defs>
  <g id="Layer_1-2" data-name="Layer 1">
    <path class="cls-1" d="M408.67,43.9v321.65c-1.43.94-1.11,2.6-1.45,3.92-4.78,18.06-16.05,30.11-33.49,36.57-2.93,1.09-6.17,1.08-8.96,2.62h-83.81c0-45.48.04-90.96-.08-136.44,0-3.38.92-4.19,4.19-4.11,10.1.22,20.21-.06,30.32.16,3.05.07,4.38-1,5.45-3.74,6.92-17.67,14.01-35.27,21.04-52.9.92-2.31,1.82-4.62,2.87-7.3-1.98,0-3.44,0-4.89,0-18.35,0-36.7-.08-55.06.08-3.18.03-3.96-.88-3.92-3.97.16-15.16.04-30.32.08-45.48.02-9.86,3.33-13.45,13.1-14.32,1.72-.15,3.45-.15,5.18-.15,9.84-.01,19.68-.1,29.52.05,2.63.04,3.33-.75,3.32-3.35-.1-19.02-.14-38.03.03-57.05.03-3.26-1.2-3.59-3.92-3.57-15.56.11-31.12.07-46.68.05-4.67,0-9.3.38-13.88,1.22-36.72,6.76-62.78,37.51-63.27,74.85-.2,15.56-.16,31.12.05,46.68.05,3.82-.62,5.18-4.87,5.09-14.09-.32-28.19-.05-42.29-.18-2.89-.03-4.14.4-4.1,3.79.19,18.88.15,37.77.02,56.65-.02,2.81.76,3.56,3.55,3.53,14.36-.14,28.73.05,43.09-.15,3.56-.05,4.62.79,4.6,4.52-.14,45.35-.09,90.69-.09,136.04H43.11c-.43-1.17-1.56-.82-2.38-1.04C14.9,400.92.02,381.78.02,355.15,0,254.59.02,154.03,0,53.47c0-4.54.25-9.04,1.3-13.46C7.06,15.72,27.15.02,52.66.01,153.76-.01,254.85,0,355.94,0c1.06,0,2.13.01,3.19.05,20.97.67,39.35,14.01,46.42,33.79,1.18,3.3,2.08,6.71,3.11,10.06Z"/>
  </g>
</svg>