<?xml version="1.0" encoding="UTF-8"?>
<svg width="50px" height="23px" viewBox="0 0 50 23" version="1.1" xmlns="http://www.w3.org/2000/svg" xmlns:xlink="http://www.w3.org/1999/xlink">
    <!-- Generator: Sketch 51.2 (57519) - http://www.bohemiancoding.com/sketch -->
    <title>film</title>
    <desc>Created with Sketch.</desc>
    <defs></defs>
    <g id="Page-1" stroke="none" stroke-width="1" fill="none" fill-rule="evenodd">
        <g id="QIO-one-list-iPhone-8" transform="translate(-231.000000, -143.000000)" fill="#FFFFFF">
            <g id="QIO_LOGO_w_film" transform="translate(95.000000, 129.000000)">
                <path d="M139.744,22.576 L139.744,36.784 L138.112,36.784 L138.112,22.576 L136,22.576 L136,21.36 L138.112,21.36 L138.112,18.032 C138.112,15.696 139.392,14 141.824,14 L143.232,14 L143.232,15.44 L142.112,15.44 C140.48,15.44 139.744,16.368 139.744,18 L139.744,21.36 L143.232,21.36 L143.232,22.576 L139.744,22.576 Z M147.296,36.784 L147.296,21.36 L148.928,21.36 L148.928,36.784 L147.296,36.784 Z M147.104,16.016 L147.104,14 L149.12,14 L149.12,16.016 L147.104,16.016 Z M158.339556,36.784 C155.811556,36.784 154.627556,35.216 154.627556,32.784 L154.627556,14 L156.259556,14 L156.259556,32.752 C156.259556,34.512 156.803556,35.344 158.627556,35.344 L159.747556,35.344 L159.747556,36.784 L158.339556,36.784 Z M183.911111,36.784 L183.911111,27.216 C183.911111,24.24 182.439111,22.608 179.655111,22.608 C176.967111,22.608 175.303111,24.272 175.303111,26.928 L175.303111,36.784 L173.671111,36.784 L173.671111,27.216 C173.671111,24.24 172.199111,22.608 169.415111,22.608 C166.631111,22.608 165.063111,24.272 165.063111,27.216 L165.063111,36.784 L163.431111,36.784 L163.431111,21.36 L165.063111,21.36 L165.063111,23.184 C166.215111,21.84 167.751111,21.168 169.639111,21.168 C171.943111,21.168 173.671111,22.16 174.599111,23.984 C175.751111,22.16 177.543111,21.168 179.847111,21.168 C181.543111,21.168 182.919111,21.712 183.911111,22.64 C184.967111,23.664 185.511111,25.104 185.511111,26.928 L185.511111,36.784 L183.911111,36.784 Z" id="film"></path>
            </g>
        </g>
    </g>
</svg>