<svg xmlns="http://www.w3.org/2000/svg" viewBox="0 0 451 97" fill="#fff">
<path d="M292.967 22.988a63.35 63.35 0 0 1-4.65-1.41 2.28 2.28 0 0 0-.74-.18c-2.88-.1-5.34-2.23-5.34-6.14s2.37-6.39 5.65-6.39 5.46 2.53 5.46 6.14c0 3.12-1.44 5.12-3.46 5.82v.07c1.21.31 2.52.59 3.55.77l-.47 1.32zm-1.3-7.91c0-2.43-1.26-4.93-3.83-4.93s-3.95 2.45-3.93 5.08 1.41 4.9 3.85 4.9 3.91-2.27 3.91-5.05zM304.127 9.068v7.18c0 2.72 1.2 3.88 2.82 3.88 1.8 0 3-1.19 3-3.88v-7.18h1.58v7.08c0 3.72-2 5.25-4.59 5.25s-4.36-1.42-4.36-5.18v-7.15h1.55zM322.757 17.398l-1.27 3.82h-1.62l4.13-12.14h1.89l4.14 12.14h-1.68l-1.29-3.82h-4.3zm4-1.23l-1.19-3.49c-.27-.79-.45-1.51-.63-2.21-.18.72-.38 1.46-.61 2.19l-1.19 3.51h3.62zM339.007 9.068h1.56v10.82h5.19v1.32h-6.75V9.068zM356.267 9.068v12.14h-1.57V9.068h1.57zM368.507 10.398h-3.69v-1.33h9v1.33h-3.7v10.81h-1.59l-.02-10.81zM385.557 21.208v-5.15l-3.84-7h1.78l1.72 3.34c.46.92.82 1.66 1.2 2.5.34-.79.75-1.58 1.22-2.5l1.75-3.35h1.78l-4.07 7v5.17l-1.54-.01zM284.517 44.068v12.14h-1.56v-12.14h1.56zM294.457 56.208v-12.14h1.71l3.89 6.14a34.986 34.986 0 0 1 2.18 3.94c-.14-1.62-.18-3.1-.18-5v-5.08h1.48v12.14h-1.58l-3.86-6.16a41.826 41.826 0 0 1-2.27-4.05h-.05c.09 1.53.13 3 .13 5v5.19l-1.45.02zM313.287 54.298c.85.508 1.82.781 2.81.79 1.6 0 2.53-.85 2.53-2.07s-.64-1.78-2.28-2.41c-2-.71-3.21-1.73-3.21-3.44 0-1.89 1.57-3.3 3.93-3.3a5.455 5.455 0 0 1 2.68.6l-.4 1.28a4.814 4.814 0 0 0-2.31-.58c-1.65 0-2.28 1-2.28 1.82 0 1.13.74 1.69 2.41 2.34 2 .79 3.1 1.78 3.1 3.56s-1.42 3.51-4.28 3.51a6.311 6.311 0 0 1-3.1-.78l.4-1.32zM331.137 44.068v12.14h-1.56v-12.14h1.56zM350.347 55.668a11.43 11.43 0 0 1-3.73.66 5.69 5.69 0 0 1-6.27-6.12c0-3.62 2.5-6.27 6.57-6.27a7.503 7.503 0 0 1 3 .56l-.37 1.28a6.296 6.296 0 0 0-2.69-.52 4.54 4.54 0 0 0-4.88 4.88c0 3.08 1.86 4.9 4.69 4.9a5.057 5.057 0 0 0 2.08-.33v-3.62h-2.4v-1.26h4v5.84zM361.467 44.068v5.08h5.88v-5.08h1.59v12.14h-1.59v-5.69h-5.87v5.69h-1.56v-12.14h1.55zM381.147 45.398h-3.69v-1.33h9v1.33h-3.71v10.81h-1.6v-10.81zM293.347 85.008c0 4.18-2.54 6.39-5.64 6.39s-5.45-2.48-5.45-6.15c0-3.86 2.39-6.38 5.63-6.38s5.46 2.53 5.46 6.14zm-9.42.2c0 2.59 1.41 4.92 3.87 4.92s3.89-2.29 3.89-5c0-2.41-1.26-4.93-3.87-4.93s-3.91 2.35-3.91 5.01h.02zM302.557 79.228c.99-.174 1.994-.258 3-.25a4.998 4.998 0 0 1 3.51 1c.637.595.984 1.439.95 2.31a3.18 3.18 0 0 1-2.29 3.09v.02a3 3 0 0 1 1.79 2.45c.209 1.136.521 2.25.93 3.33h-1.62a17.675 17.675 0 0 1-.81-2.9c-.36-1.68-1-2.31-2.43-2.36h-1.47v5.26h-1.57l.01-11.95zm1.57 5.53h1.6c1.67 0 2.74-.92 2.74-2.3 0-1.57-1.14-2.26-2.8-2.27a6.583 6.583 0 0 0-1.54.14v4.43zM321.007 79.068v12.14h-1.57v-12.14h1.57zM340.177 90.668c-1.198.427-2.459.65-3.73.66a5.71 5.71 0 0 1-6.23-6.12c0-3.62 2.51-6.27 6.58-6.27a7.503 7.503 0 0 1 3 .56l-.38 1.28a6.263 6.263 0 0 0-2.68-.52 4.54 4.54 0 0 0-4.88 4.88c0 3.08 1.86 4.9 4.68 4.9a5.087 5.087 0 0 0 2.09-.33v-3.62h-2.47v-1.26h4l.02 5.84zM351.347 79.068v12.14h-1.57v-12.14h1.57zM361.267 91.208v-12.14h1.72l3.88 6.14a33.444 33.444 0 0 1 2.18 3.94c-.14-1.62-.18-3.1-.18-5v-5.08h1.48v12.14h-1.59l-3.85-6.16a37.797 37.797 0 0 1-2.27-4.05h-.06c.09 1.53.13 3 .13 5v5.19l-1.44.02zM382.277 87.398l-1.26 3.82h-1.62l4.12-12.14h1.89l4.15 12.14h-1.68l-1.3-3.82h-4.3zm4-1.23l-1.19-3.49c-.27-.79-.45-1.51-.63-2.21-.18.72-.38 1.46-.62 2.19l-1.18 3.51h3.62zM398.527 79.068h1.57v10.82h5.19v1.32h-6.76v-12.14zM415.797 79.068v12.14h-1.57v-12.14h1.57zM428.037 80.398h-3.69v-1.33h9v1.33h-3.71v10.81h-1.58l-.02-10.81zM445.077 91.208v-5.15l-3.83-7h1.78l1.71 3.35c.47.92.83 1.66 1.21 2.5.34-.79.76-1.58 1.23-2.5l1.74-3.35h1.79l-4.07 7v5.17l-1.56-.02zM209.977.468c-26.471-.006-47.934 21.449-47.94 47.92-.006 26.471 21.449 47.934 47.92 47.94s47.934-21.449 47.94-47.92v-.01c-.038-26.451-21.469-47.886-47.92-47.93zm0 92.86c-24.814.006-44.934-20.106-44.94-44.92s20.106-44.934 44.92-44.94 44.934 20.106 44.94 44.92v.01c-.038 24.794-20.125 44.886-44.92 44.93zM133.347.468c-6.931.011-12.544 5.629-12.55 12.56v70.74c-.196 6.934 5.267 12.714 12.201 12.909s12.714-5.267 12.909-12.201c.007-.236.007-.473 0-.709v-70.74c-.011-6.931-5.628-12.548-12.56-12.559zm9.56 83.3c.171 5.277-3.969 9.693-9.246 9.864-5.277.171-9.693-3.969-9.864-9.246a9.096 9.096 0 0 1 0-.618v-70.74c-.171-5.277 3.969-9.693 9.246-9.864 5.277-.171 9.693 3.969 9.864 9.246.007.206.007.412 0 .618v70.74zM92.057 68.248c11.03-24.136.405-52.644-23.731-63.674S15.681 4.169 4.652 28.305 4.246 80.95 28.383 91.979a48.049 48.049 0 0 0 47.544-4.351l4.73 4.72c4.902 4.902 12.848 4.902 17.75 0 4.902-4.902 4.902-12.848 0-17.75l-6.35-6.35zm-43.61 25.08c-24.853.03-45.024-20.093-45.054-44.946-.03-24.853 20.093-45.024 44.946-45.054 24.853-.03 45.024 20.093 45.054 44.946a44.998 44.998 0 0 1-3.606 17.704l-26.59-26.58c-4.911-4.899-12.864-4.889-17.763.022a12.555 12.555 0 0 0-3.667 8.857 12.432 12.432 0 0 0 3.68 8.87l28.33 28.34a44.608 44.608 0 0 1-25.33 7.841zm40-24.47a45.175 45.175 0 0 1-12.21 14.82l-28.67-28.66c-3.731-3.731-3.731-9.779 0-13.51s9.779-3.731 13.51 0l27.37 27.35zm7.86 21.37c-3.728 3.731-9.775 3.733-13.506.004l-.004-.004-4.45-4.42a48.287 48.287 0 0 0 12.3-14.72l5.63 5.63c3.731 3.728 3.733 9.775.004 13.506l-.004.004h.03z"/>
</svg>