<?xml version="1.0" encoding="UTF-8"?>
<svg width="50px" height="30px" viewBox="0 0 50 30" version="1.1" xmlns="http://www.w3.org/2000/svg" xmlns:xlink="http://www.w3.org/1999/xlink">
    <!-- Generator: Sketch 51.2 (57519) - http://www.bohemiancoding.com/sketch -->
    <title>intersection</title>
    <desc>Created with Sketch.</desc>
    <defs></defs>
    <g id="Page-1" stroke="none" stroke-width="1" fill="none" fill-rule="evenodd">
        <g id="QIO-one-list" transform="translate(-795.000000, -1125.000000)" fill="#000000" fill-rule="nonzero">
            <g id="intersection" transform="translate(795.000000, 1125.000000)">
                <path d="M35.1671429,0.0675276753 C31.2283516,0.0675276753 27.6454945,1.62741697 24.9898901,4.16125461 C22.333956,1.62664207 18.7517582,0.0675276753 14.8130769,0.0675276753 C6.64505495,0.0675276753 0,6.76162362 0,14.9901476 C0,23.2176753 6.64505495,29.9121033 14.812967,29.9121033 C18.7517582,29.9121033 22.3338462,28.352214 24.9897802,25.8180443 C27.6453846,28.3528782 31.2283516,29.9121033 35.167033,29.9121033 C43.3342857,29.9121033 49.9796703,23.2176753 49.9796703,14.9901476 C49.9796703,6.76162362 43.3343956,0.0675276753 35.1671429,0.0675276753 Z M14.812967,28.5719557 C7.37802198,28.5719557 1.33021978,22.4781919 1.33021978,14.9901476 C1.33021978,7.50110701 7.37868132,1.40767528 14.812967,1.40767528 C18.3931868,1.40767528 21.6437363,2.8301845 24.0594505,5.13177122 C21.7556044,7.76291513 20.3531868,11.2144649 20.3531868,14.9902583 C20.3531868,18.767048 21.7554945,22.2179336 24.0594505,24.849631 C21.6437363,27.1494465 18.3931868,28.5719557 14.812967,28.5719557 Z M21.6834066,14.9901476 C21.6834066,11.5935055 22.9367033,8.49110701 24.9897802,6.10738007 C27.0427473,8.49110701 28.2962637,11.5936162 28.2962637,14.9901476 C28.2962637,18.3861255 27.0427473,21.4889668 24.9897802,23.8719188 C22.9367033,21.4889668 21.6834066,18.3860148 21.6834066,14.9901476 Z M35.1671429,28.5719557 C31.5869231,28.5719557 28.3359341,27.1494465 25.9203297,24.8481919 C28.2241758,22.2164945 29.6265934,18.7656089 29.6265934,14.9888192 C29.6265934,11.2126937 28.2241758,7.76147601 25.9203297,5.1303321 C28.3364835,2.82874539 31.5868132,1.40623616 35.1671429,1.40623616 C42.6016484,1.40623616 48.6494505,7.49944649 48.6494505,14.9888192 C48.6494505,22.4769742 42.6016484,28.5719557 35.1671429,28.5719557 Z M25.8723077,8.70830258 L23.9051648,8.70830258 L23.9051648,8.03822878 L25.8723077,8.03822878 L25.8723077,8.70830258 Z M24.0853846,21.2716605 L26.0528571,21.2716605 L26.0528571,21.9417343 L24.0853846,21.9417343 L24.0853846,21.2716605 Z M27.2310989,11.0815129 L22.9074725,11.0815129 L22.9074725,10.4114391 L27.2310989,10.4114391 L27.2310989,11.0815129 Z M27.6468132,13.2309963 L22.1464835,13.2309963 L22.1464835,12.5610332 L27.6468132,12.5610332 L27.6468132,13.2309963 Z M27.8403297,14.7666421 L27.8403297,15.4363838 L22.1391209,15.4363838 L22.1391209,14.7666421 L27.8403297,14.7666421 Z M22.4231868,16.9557565 L27.5545055,16.9557565 L27.5545055,17.6258303 L22.4231868,17.6258303 L22.4231868,16.9557565 Z M22.9074725,19.094059 L26.8153846,19.094059 L26.8153846,19.7641328 L22.9074725,19.7641328 L22.9074725,19.094059 Z" id="Shape"></path>
            </g>
        </g>
    </g>
</svg>