<?xml version="1.0" encoding="UTF-8"?>
<svg width="36px" height="36px" viewBox="0 0 36 36" version="1.1" xmlns="http://www.w3.org/2000/svg" xmlns:xlink="http://www.w3.org/1999/xlink">
    <!-- Generator: Sketch 51.2 (57519) - http://www.bohemiancoding.com/sketch -->
    <title>stopwatch</title>
    <desc>Created with Sketch.</desc>
    <defs></defs>
    <g id="Page-1" stroke="none" stroke-width="1" fill="none" fill-rule="evenodd">
        <g id="QIO-one-list" transform="translate(-1076.000000, -1119.000000)" fill="#000000" fill-rule="nonzero">
            <g id="Group-3" transform="translate(967.000000, 1056.000000)">
                <g id="stopwatch" transform="translate(109.000000, 63.000000)">
                    <path d="M31.2,23.016 L31.2,21.6 L31.8,21.6 C32.1318,21.6 32.4,21.3318 32.4,21 C32.4,20.6682 32.1318,20.4 31.8,20.4 L31.2,20.4 L30.6,20.4 L22.2,20.4 L21.6,20.4 L21,20.4 C20.6682,20.4 20.4,20.6682 20.4,21 C20.4,21.3318 20.6682,21.6 21,21.6 L21.6,21.6 L21.6,23.016 C21.6,25.137 22.707,27.0648 24.4962,28.2 C22.707,29.3352 21.6,31.263 21.6,33.384 L21.6,34.8 L21,34.8 C20.6682,34.8 20.4,35.0682 20.4,35.4 C20.4,35.7318 20.6682,36 21,36 L21.6,36 L22.2,36 L30.6,36 L31.2,36 L31.8,36 C32.1318,36 32.4,35.7318 32.4,35.4 C32.4,35.0682 32.1318,34.8 31.8,34.8 L31.2,34.8 L31.2,33.384 C31.2,31.263 30.093,29.3352 28.3038,28.2 C30.093,27.0648 31.2,25.137 31.2,23.016 Z M30,33.384 L30,34.8 L22.8,34.8 L22.8,33.384 C22.8,31.3926 24.0198,29.6052 25.9182,28.8 L26.8812,28.8 C28.7802,29.6052 30,31.392 30,33.384 Z M26.8818,27.6 L25.9188,27.6 C24.0198,26.7948 22.8,25.008 22.8,23.016 L22.8,21.6 L30,21.6 L30,23.016 C30,25.008 28.7802,26.7948 26.8818,27.6 Z" id="Shape"></path>
                    <path d="M20.118,16.5318 L12.3516,10.914 C12.114,10.7424 11.7846,10.7688 11.5758,10.9764 C11.367,11.1852 11.3412,11.514 11.5134,11.7522 L17.1324,19.5204 C17.5008,20.0268 18.0702,20.3454 18.6948,20.394 C18.7518,20.3976 18.8076,20.4 18.8628,20.4 C19.4274,20.4 19.971,20.1768 20.3736,19.7736 C20.8158,19.3314 21.042,18.72 20.9934,18.0954 C20.9448,17.4708 20.6262,16.9014 20.118,16.5318 Z M19.5252,18.9252 C19.3308,19.1196 19.0614,19.2138 18.789,19.197 C18.5148,19.176 18.2646,19.0356 18.1038,18.8148 L14.676,14.0766 L19.413,17.5032 C19.6356,17.6652 19.7754,17.9154 19.797,18.1896 C19.8186,18.4626 19.719,18.7314 19.5252,18.9252 Z" id="Shape"></path>
                    <path d="M18,0 C17.6682,0 17.4,0.2682 17.4,0.6 L17.4,8.5746 C17.4,8.9064 17.6682,9.1746 18,9.1746 C18.3318,9.1746 18.6,8.9064 18.6,8.5746 L18.6,1.2108 C27.5874,1.5276 34.8,8.9376 34.8,18 C34.8,20.0808 34.4196,22.1178 33.6702,24.0564 C33.5508,24.3654 33.7044,24.7128 34.0134,24.8322 C34.0842,24.8598 34.1574,24.8724 34.2294,24.8724 C34.4694,24.8724 34.6968,24.7266 34.7892,24.4884 C35.5926,22.4124 36,20.229 36,18 C36,8.0748 27.9252,0 18,0 Z" id="Shape"></path>
                    <path d="M13.9458,34.308 C6.441,32.4486 1.2,25.7424 1.2,18 C1.2,13.524 2.94,9.3126 6.0996,6.141 C6.3342,5.9058 6.333,5.5266 6.0984,5.2926 C5.8632,5.058 5.484,5.0604 5.25,5.2938 C1.8642,8.6922 0,13.2048 0,18 C0,26.295 5.616,33.48 13.6578,35.4726 C13.7058,35.4846 13.7544,35.49 13.8024,35.49 C14.0712,35.49 14.316,35.307 14.3844,35.034 C14.4636,34.7124 14.2674,34.3878 13.9458,34.308 Z" id="Shape"></path>
                </g>
            </g>
        </g>
    </g>
</svg>