<?xml version="1.0" encoding="UTF-8"?>
<svg width="47px" height="16px" viewBox="0 0 47 16" version="1.1" xmlns="http://www.w3.org/2000/svg" xmlns:xlink="http://www.w3.org/1999/xlink">
    <!-- Generator: Sketch 51.2 (57519) - http://www.bohemiancoding.com/sketch -->
    <title>one</title>
    <desc>Created with Sketch.</desc>
    <defs></defs>
    <g id="Page-1" stroke="none" stroke-width="1" fill="none" fill-rule="evenodd">
        <g id="QIO-one-list-iPhone-8" transform="translate(-232.000000, -150.000000)" fill="#221815">
            <g id="QIO_LOGO_B_02" transform="translate(96.000000, 132.000000)">
                <path d="M148.416,25.904 C148.416,28.112 148.128,30.48 146.496,32.112 C145.376,33.232 143.968,33.808 142.208,33.808 C140.48,33.808 139.04,33.232 137.92,32.112 C136.288,30.48 136,28.112 136,25.904 C136,23.696 136.288,21.328 137.92,19.696 C139.04,18.576 140.48,18 142.208,18 C143.968,18 145.376,18.576 146.496,19.696 C148.128,21.328 148.416,23.696 148.416,25.904 Z M146.784,25.904 C146.784,24.112 146.688,22.032 145.408,20.752 C144.544,19.888 143.456,19.44 142.208,19.44 C140.96,19.44 139.872,19.888 139.008,20.752 C137.728,22.032 137.632,24.112 137.632,25.904 C137.632,27.696 137.728,29.776 139.008,31.056 C139.872,31.92 140.96,32.368 142.208,32.368 C143.456,32.368 144.544,31.92 145.408,31.056 C146.688,29.776 146.784,27.696 146.784,25.904 Z M163.523556,33.616 L163.523556,24.048 C163.523556,21.072 162.051556,19.44 159.267556,19.44 C156.483556,19.44 154.915556,21.104 154.915556,24.048 L154.915556,33.616 L153.283556,33.616 L153.283556,18.192 L154.915556,18.192 L154.915556,20.016 C156.067556,18.672 157.571556,18 159.459556,18 C161.155556,18 162.531556,18.48 163.555556,19.472 C164.611556,20.496 165.155556,21.936 165.155556,23.76 L165.155556,33.616 L163.523556,33.616 Z M171.463111,26.256 C171.463111,30.192 173.191111,32.336 176.487111,32.336 C178.311111,32.336 179.431111,31.792 180.743111,30.48 L181.959111,31.44 C180.391111,33.008 178.951111,33.808 176.391111,33.808 C172.135111,33.808 169.831111,31.056 169.831111,25.904 C169.831111,20.912 172.135111,18 176.007111,18 C179.879111,18 182.183111,20.784 182.183111,25.52 L182.183111,26.256 L171.463111,26.256 Z M180.551111,24.944 C180.455111,23.472 180.423111,22.96 180.007111,22.032 C179.335111,20.4 177.799111,19.44 176.007111,19.44 C174.215111,19.44 172.679111,20.4 172.007111,22.032 C171.655111,23.024 171.559111,23.44 171.463111,24.944 L180.551111,24.944 Z" id="one"></path>
            </g>
        </g>
    </g>
</svg>