<svg xmlns="http://www.w3.org/2000/svg" xmlns:xlink= "http://www.w3.org/1999/xlink" viewBox="0 0 296.43 136" fill="#fff"><title>mobile_logo</title><g id="Layer_2" data-name="Layer 2"><path d="M229,20.07A47.93,47.93,0,1,0,276.91,68,48,48,0,0,0,229,20.07Zm0,92.86A44.93,44.93,0,1,1,273.91,68,45,45,0,0,1,229,112.93Z"/><path d="M152.35,20.07A12.57,12.57,0,0,0,139.8,32.63v70.74a12.56,12.56,0,1,0,25.11,0V32.63A12.58,12.58,0,0,0,152.35,20.07Zm9.56,83.3a9.56,9.56,0,1,1-19.11,0V32.63a9.56,9.56,0,1,1,19.11,0Z"/><path d="M111.06,87.85a48,48,0,1,0-16.12,19.38L99.66,112A12.55,12.55,0,0,0,117.41,94.2Zm-43.6,25.08A44.92,44.92,0,1,1,108.8,85.58L82.2,59A12.55,12.55,0,1,0,64.45,76.74l28.34,28.34A44.64,44.64,0,0,1,67.46,112.93Zm40-24.47a45.19,45.19,0,0,1-12.21,14.82L66.57,74.62A9.55,9.55,0,1,1,80.08,61.11Zm7.86,21.37a9.55,9.55,0,0,1-13.51,0l-4.42-4.42a48.28,48.28,0,0,0,12.3-14.72l5.63,5.63a9.55,9.55,0,0,1,0,13.51Z"/></g></svg>