<svg height="511pt" viewBox="0 0 511.99869 511" width="511pt" xmlns="http://www.w3.org/2000/svg"><path d="m175.03125 337.515625c3.910156 3.902344 10.242188 3.902344 14.140625 0 3.910156-3.910156 3.910156-10.238281 0-14.140625-3.898437-3.910156-10.230469-3.910156-14.140625 0-3.898438 3.902344-3.898438 10.230469 0 14.140625zm0 0"/><path d="m217.46875 309.226562 95.691406-95.753906c3.902344-3.90625 3.902344-10.238281-.003906-14.144531-3.910156-3.902344-10.238281-3.898437-14.144531.003906l-95.691407 95.753907c-3.90625 3.90625-3.902343 10.238281.003907 14.144531 3.90625 3.902343 10.238281 3.902343 14.144531-.003907zm0 0"/><path d="m157.519531 270.175781-86.128906 86.128907c-.957031.957031-1.753906 2.160156-2.265625 3.507812-.015625.03125-.03125.0625-.042969.09375-7.953125 21.507812-32.082031 86.75-41.574219 112.414062-1.351562 3.664063-.449218 7.785157 2.316407 10.542969 2.742187 2.742188 6.859375 3.667969 10.546875 2.300781 24.875-9.238281 90.710937-33.691406 112.28125-41.703124 1.257812-.464844 2.570312-1.28125 3.589844-2.300782l86.121093-86.121094 153.550781 154.421876c1.878907 1.886718 4.429688 2.949218 7.09375 2.949218h.007813c2.664063-.003906 5.21875-1.070312 7.09375-2.960937l98.992187-99.914063c3.875-3.910156 3.859376-10.214844-.03125-14.109375-7.632812-7.632812-147.484374-147.492187-153.542968-153.550781 26.113281-26.113281 89.054687-89.054688 113.058594-113.058594 23.453124-23.425781 23.46875-61.417968.003906-84.855468-23.441406-23.453126-61.398438-23.457032-84.855469 0l-113.070313 113.070312c-5.796874-5.796875-144.863281-144.867188-153.601562-153.601562-3.890625-3.894532-10.195312-3.910157-14.105469-.035157l-99.992187 98.980469c-1.894532 1.875-2.96093775 4.429688-2.964844 7.097656-.00390625 2.664063 1.058594 5.222656 2.949219 7.101563zm120.214844-91.929687s0 0 .003906-.003906c0 0 0 0 0-.003907l62.359375-62.355469 56.566406 56.570313-62.347656 62.34375c0 .003906 0 .003906-.003906.003906v.003907l-185.140625 185.140624-56.566406-56.570312zm97.722656-97.722656 56.566407 56.570312-21.214844 21.214844-56.570313-56.566406zm-285.621093 364.933593-22.679688-22.679687 15.269531-41.292969 48.65625 48.65625zm-30.316407-2.03125 9.691407 9.691407-15.390626 5.714843zm305.0625-164.210937-42.847656 42.839844c-3.90625 3.902343-3.90625 10.234374 0 14.140624 3.902344 3.90625 10.234375 3.90625 14.140625.003907l42.847656-42.839844 30.285156 30.285156-28.703124 28.699219c-3.902344 3.90625-3.902344 10.238281 0 14.144531 3.90625 3.90625 10.238281 3.902344 14.144531 0l28.703125-28.703125 30.289062 30.292969-42.84375 42.839844c-3.90625 3.902343-3.90625 10.234375 0 14.140625 3.902344 3.90625 10.234375 3.90625 14.140625 0l42.847657-42.835938 20.304687 20.308594c-84.441406 84.367188-84.894531 85.683594-84.894531 85.683594l-146.488282-147.320313 84.878907-84.878906zm89.867188-221.109375c15.632812 15.613281 15.640625 40.9375-.003907 56.566406l-8.277343 8.277344-56.570313-56.566407 8.28125-8.28125c15.628906-15.632812 40.933594-15.644531 56.570313.003907zm-322.179688-11.183594-42.839843 42.828125c-3.902344 3.902344-3.902344 10.234375 0 14.140625 3.90625 3.90625 10.238281 3.90625 14.144531.003906l42.839843-42.832031 30.285157 30.289062-28.695313 28.6875c-3.90625 3.90625-3.90625 10.238282-.003906 14.144532 3.90625 3.902344 10.234375 3.90625 14.144531 0l28.699219-28.691406 28.269531 28.273437-42.832031 42.835937c-3.902344 3.90625-3.902344 10.238282 0 14.144532 3.90625 3.902344 10.238281 3.90625 14.144531-.003906l42.832031-42.835938 23.265626 23.265625-84.863282 84.863281-147.460937-146.539062s1.386719-.453125 85.757812-84.890625zm0 0"/></svg>