<?xml version="1.0" encoding="UTF-8"?>
<svg width="46px" height="30px" viewBox="0 0 46 30" version="1.1" xmlns="http://www.w3.org/2000/svg" xmlns:xlink="http://www.w3.org/1999/xlink">
    <!-- Generator: Sketch 51.2 (57519) - http://www.bohemiancoding.com/sketch -->
    <title>people-1</title>
    <desc>Created with Sketch.</desc>
    <defs></defs>
    <g id="Page-1" stroke="none" stroke-width="1" fill="none" fill-rule="evenodd">
        <g id="QIO-one-list" transform="translate(-249.000000, -1125.000000)" fill="#282B2E" fill-rule="nonzero">
            <g id="people-1" transform="translate(249.000000, 1125.000000)">
                <path d="M39.7835,12.8516 C41.1306,11.905 42.0226,10.3304 42.0226,8.5556 C42.0226,5.65216 39.6743,3.30392 36.7709,3.30392 C33.8674,3.30392 31.5192,5.65216 31.5192,8.5556 C31.5192,10.3304 32.4021,11.905 33.7582,12.8516 C32.6023,13.2521 31.5465,13.871 30.6545,14.6719 C29.4258,13.6252 27.9786,12.8243 26.3949,12.351 C28.3154,11.186 29.6078,9.0653 29.6078,6.65334 C29.6078,2.97626 26.6316,0 22.9545,0 C19.2774,0 16.3011,2.98536 16.3011,6.65334 C16.3011,9.0653 17.5845,11.186 19.514,12.351 C17.9486,12.8243 16.5196,13.6161 15.3,14.6446 C14.408,13.8619 13.3704,13.2521 12.2327,12.8607 C13.5797,11.9141 14.4717,10.3395 14.4717,8.5647 C14.4717,5.66126 12.1235,3.31302 9.22002,3.31302 C6.31658,3.31302 3.96834,5.66126 3.96834,8.5647 C3.96834,10.3395 4.85121,11.9141 6.20736,12.8607 C2.59398,14.1076 0,17.539 0,21.571 L0,22.1717 C0,22.19 0.0182034,22.2082 0.0364068,22.2082 L11.1678,22.2082 C11.1041,22.7087 11.0677,23.2275 11.0677,23.7463 L11.0677,24.3653 C11.0677,27.0412 13.2339,29.2074 15.9098,29.2074 L30.0174,29.2074 C32.6933,29.2074 34.8595,27.0412 34.8595,24.3653 L34.8595,23.7463 C34.8595,23.2275 34.8231,22.7087 34.7594,22.2082 L45.9636,22.2082 C45.9818,22.2082 46,22.19 46,22.1717 L46,21.571 C45.9818,17.5299 43.3969,14.0985 39.7835,12.8516 Z M32.9755,8.5465 C32.9755,6.45311 34.6775,4.75109 36.7709,4.75109 C38.8643,4.75109 40.5663,6.45311 40.5663,8.5465 C40.5663,10.6126 38.9007,12.2964 36.8437,12.3419 C36.8164,12.3419 36.7982,12.3419 36.7709,12.3419 C36.7436,12.3419 36.7254,12.3419 36.6981,12.3419 C34.632,12.3055 32.9755,10.6217 32.9755,8.5465 Z M17.7392,6.65334 C17.7392,3.78631 20.0693,1.45627 22.9363,1.45627 C25.8033,1.45627 28.1334,3.78631 28.1334,6.65334 C28.1334,9.42026 25.9581,11.6866 23.2366,11.8413 C23.1365,11.8413 23.0364,11.8413 22.9363,11.8413 C22.8362,11.8413 22.736,11.8413 22.6359,11.8413 C19.9145,11.6866 17.7392,9.42026 17.7392,6.65334 Z M5.39731,8.5465 C5.39731,6.45311 7.09933,4.75109 9.19272,4.75109 C11.2861,4.75109 12.9881,6.45311 12.9881,8.5465 C12.9881,10.6126 11.3225,12.2964 9.26553,12.3419 C9.23823,12.3419 9.22002,12.3419 9.19272,12.3419 C9.16541,12.3419 9.14721,12.3419 9.1199,12.3419 C7.06292,12.3055 5.39731,10.6217 5.39731,8.5465 Z M11.4226,20.7428 L1.47448,20.7428 C1.88405,16.8655 5.16066,13.8255 9.13811,13.7982 C9.15631,13.7982 9.17452,13.7982 9.19272,13.7982 C9.21092,13.7982 9.22913,13.7982 9.24733,13.7982 C11.1405,13.8073 12.8698,14.5081 14.2078,15.6458 C12.8971,17.0657 11.9232,18.8132 11.4226,20.7428 Z M33.385,24.3653 C33.385,26.2311 31.8651,27.7511 29.9992,27.7511 L15.8916,27.7511 C14.0257,27.7511 12.5057,26.2311 12.5057,24.3653 L12.5057,23.7463 C12.5057,18.0942 17.0202,13.4705 22.6359,13.3067 C22.736,13.3158 22.8453,13.3158 22.9454,13.3158 C23.0455,13.3158 23.1547,13.3158 23.2548,13.3067 C28.8706,13.4705 33.385,18.0942 33.385,23.7463 L33.385,24.3653 Z M34.4681,20.7428 C33.9676,18.8223 33.0119,17.1021 31.7103,15.6822 C33.0574,14.5172 34.8049,13.8164 36.7163,13.7982 C36.7345,13.7982 36.7527,13.7982 36.7709,13.7982 C36.7891,13.7982 36.8073,13.7982 36.8255,13.7982 C40.8029,13.8255 44.0795,16.8655 44.4891,20.7428 L34.4681,20.7428 Z" id="Shape"></path>
            </g>
        </g>
    </g>
</svg>