<?xml version="1.0" encoding="UTF-8"?>
<svg id="Layer_2" data-name="Layer 2" xmlns="http://www.w3.org/2000/svg" viewBox="0 0 510.85 357.62">
  <defs>
    <style>
      .cls-1 {
        fill: #fff;
        stroke-width: 0px;
      }
    </style>
  </defs>
  <g id="Layer_1-2" data-name="Layer 1">
    <path class="cls-1" d="M0,215.52v-73.83c1.9-1.13.93-2.98,1.01-4.48,1.35-23.39,2.95-46.74,6.94-69.88,3.23-18.75,11.06-34.58,26.44-46.37,12.13-9.3,26.31-12.21,40.94-13.88,34.05-3.89,68.28-4.94,102.5-5.96,61-1.81,122-1.42,182.97.98,28.39,1.12,56.76,2.49,84.92,6.8,28.25,4.33,48.62,22.72,55.29,50.26,4.52,18.65,6.31,37.66,7.64,56.71,2.45,35.19,2.93,70.42,1.05,105.65-1.32,24.72-2.74,49.45-7.86,73.76-6.18,29.37-23.77,47.61-53.45,53.23-24.06,4.55-48.53,5.45-72.92,6.52-47.5,2.08-95.03,3.03-142.58,2.37-55-.76-110.01-1.17-164.72-8.15-30.49-3.89-51.66-22.16-58.67-52.06-4.72-20.12-6.15-40.69-7.58-61.25-.47-6.81.17-13.76-1.92-20.42ZM204.74,255.29c44.4-25.57,88.26-50.83,132.71-76.43-44.35-25.54-88.3-50.86-132.71-76.44v152.88Z"/>
  </g>
</svg>