<?xml version="1.0" encoding="UTF-8"?>
<svg id="Layer_2" data-name="Layer 2" xmlns="http://www.w3.org/2000/svg" viewBox="0 0 187.63 187.55">
  <defs>
    <style>
      .cls-1 {
        fill: #6f6e6e;
        stroke-width: 0px;
      }
    </style>
  </defs>
  <g id="Layer_1-2" data-name="Layer 1">
    <g>
      <path class="cls-1" d="M177.6,175.35c-8.53,8.97-19.36,12-31.32,12.09-2.91.02-5.81.12-8.72.11-30.66,0-61.32.03-91.98-.06-8.3-.03-16.67-.19-24.33-4.02-12.42-6.22-19.21-16.36-20.66-30.15C-.1,146.85,0,140.37,0,133.89c.02-30.74.02-61.48.12-92.22.03-8.2,1.06-16.23,5.49-23.43C12.16,7.58,21.77,1.86,34.09.54,38.47.08,42.87,0,47.28,0c32.9.04,65.81.02,98.71.11,7.77.02,15.43.95,22.35,4.92,11.81,6.78,17.8,17.2,18.83,30.63.38,4.97.47,9.95.47,14.94-.03,30.33.02,60.65-.06,90.98-.02,7.8-.26,15.59-3.24,23.02-1.21,3.01-3.23,5.5-4.69,8.34l-2.04,2.42ZM93.69,154.65c0,.06,0,.12,0,.17,8.73,0,17.45.03,26.18,0,19.08-.09,34.78-15.35,34.96-34.25.17-17.95.04-35.9.03-53.85,0-1.24-.01-2.51-.22-3.73-3.08-18.3-17.38-30.38-35.96-30.39-16.62-.01-33.24,0-49.86,0-3.33,0-6.62.3-9.85,1.17-15.72,4.23-26.38,18.17-26.38,34.52,0,16.12,0,32.24,0,48.36,0,2.66.12,5.3.44,7.95,1.89,15.67,15.83,29.24,31.52,29.97,9.7.45,19.44.08,29.16.08Z"/>
      <path class="cls-1" d="M177.6,175.35l2.04-2.42c.07,3.08-.15,3.34-2.04,2.42Z"/>
      <path class="cls-1" d="M93.59,143.83c-8.56,0-17.12.03-25.67,0-13.95-.07-23.91-10.13-23.91-24.13,0-17.12,0-34.23,0-51.35,0-13.85,9.85-24.01,23.7-24.11,17.45-.13,34.9-.13,52.34.02,13.52.12,23.55,10.25,23.63,23.75.1,17.28.1,34.56,0,51.84-.08,13.94-10.24,23.93-24.17,23.97-8.64.02-17.28,0-25.92,0ZM125.5,94.09c.04-17.54-14.03-31.7-31.53-31.73-17.73-.03-31.9,14.01-31.92,31.62-.02,17.53,14.03,31.66,31.55,31.73,17.72.07,31.86-13.94,31.89-31.62ZM126.47,68.49c4.19.03,7.44-3.13,7.48-7.26.04-4.15-3.15-7.44-7.28-7.49-4.14-.05-7.41,3.15-7.45,7.3-.04,4.19,3.11,7.43,7.24,7.46Z"/>
      <path class="cls-1" d="M114.32,94c.04,11.29-9.27,20.62-20.54,20.59-11.25-.03-20.39-9.11-20.5-20.38-.11-11.32,9.09-20.67,20.4-20.72,11.32-.05,20.6,9.16,20.64,20.5Z"/>
    </g>
  </g>
</svg>