<?xml version="1.0" encoding="UTF-8"?>
<svg id="Layer_2" data-name="Layer 2" xmlns="http://www.w3.org/2000/svg" viewBox="0 0 206.46 250.46">
  <defs>
    <style>
      .cls-1 {
        fill: #6f6e6e;
        stroke-width: 0px;
      }
    </style>
  </defs>
  <g id="Layer_2-2" data-name="Layer 2">
    <path class="cls-1" d="M103.23,195.52c-15.17,0-27.47,12.3-27.47,27.47s12.3,27.47,27.47,27.47,27.47-12.3,27.47-27.47-12.3-27.47-27.47-27.47Z"/>
    <polygon class="cls-1" points="206.46 0 178.22 0 159.2 0 156.54 0 141.96 0 132.14 0 103.23 61.89 74.32 0 64.5 0 49.92 0 47.26 0 28.24 0 0 0 78.27 167.59 78.02 168.12 78.52 168.12 127.94 168.12 128.44 168.12 128.19 167.59 206.46 0"/>
  </g>
</svg>