<?xml version="1.0" encoding="UTF-8"?>
<svg id="Layer_2" data-name="Layer 2" xmlns="http://www.w3.org/2000/svg" viewBox="0 0 382.31 335.32">
  <defs>
    <style>
      .cls-1 {
        fill: #6f6e6e;
        stroke-width: 0px;
      }
    </style>
  </defs>
  <g id="Layer_1-2" data-name="Layer 1">
    <path class="cls-1" d="M382.31,81.63c-1.82,3.73-1.62,7.91-2.57,11.84-5.95,24.56-16.62,47.16-28.78,69.11-20.12,36.35-44.13,69.98-71.84,100.91-20.02,22.34-41.49,43.13-67.53,58.58-9.69,5.75-19.9,10.29-31.06,12.42-17.66,3.37-31.16-3.64-41.96-16.99-11.87-14.67-18.75-31.92-24.83-49.52-10.67-30.87-17.43-62.8-25.55-94.36-4.59-17.84-9.11-35.71-16.42-52.7-3.11-7.24-6.66-14.24-12.38-19.85-6.29-6.16-11.51-6.86-19.15-2.52-7.05,4.01-13.69,8.65-20.26,13.4-2.03,1.47-3.29,1.38-4.84-.74-4.58-6.22-9.3-12.34-14.1-18.4-1.48-1.87-1.42-3.04.38-4.64,20.66-18.4,41.16-36.99,61.93-55.26,9.17-8.07,19.19-15.06,29.8-21.22,23.75-13.77,50.55-7.14,63.3,19.48,6.15,12.85,9.02,26.57,11.11,40.52,5.6,37.27,10.76,74.64,21.75,110.85,2.13,7.04,4.65,13.95,8.22,20.41,1.26,2.28,2.65,4.54,4.26,6.58,5.02,6.35,9.51,6.98,16.05,2.21,7.54-5.5,13.39-12.68,18.87-20.1,14.74-19.98,26.98-41.28,33.57-65.45,1.48-5.42,2.28-10.94,2.26-16.6-.06-16.21-8.35-24.63-24.65-24.87-9.86-.15-19.24,2.11-28.26,5.78-.88-.9-.47-1.76-.21-2.55,7.02-21.64,16.37-42.01,32.22-58.82,15.7-16.66,34.96-26,57.7-28.33,12.61-1.29,25.14-1.28,37.34,2.73,18.58,6.12,28.14,20.06,32.57,38.23,1.28,5.26,2.05,10.64,3.06,15.96v23.94Z"/>
  </g>
</svg>