<?xml version="1.0" encoding="UTF-8"?>
<svg id="Layer_2" data-name="Layer 2" xmlns="http://www.w3.org/2000/svg" viewBox="0 0 677.26 177.6">
  <defs>
    <style>
      .cls-1 {
        fill: #6f6e6e;
        stroke-width: 0px;
      }
    </style>
  </defs>
  <g id="Layer_2-2" data-name="Layer 2">
    <g>
      <path class="cls-1" d="M635.18,45.72c7.49,0,14.52,1.87,21.11,5.61,6.59,3.74,11.73,8.82,15.42,15.24,3.69,6.42,5.54,13.35,5.54,20.78s-1.86,14.49-5.58,21c-3.72,6.51-8.79,11.61-15.2,15.28-6.42,3.67-13.49,5.51-21.22,5.51-11.38,0-21.09-4.05-29.13-12.14-8.05-8.09-12.07-17.93-12.07-29.5,0-12.4,4.55-22.73,13.64-30.99,7.97-7.19,17.14-10.79,27.49-10.79ZM635.51,64.47c-6.18,0-11.33,2.15-15.45,6.45-4.12,4.3-6.17,9.81-6.17,16.52s2.03,12.49,6.1,16.77c4.07,4.28,9.22,6.42,15.45,6.42s11.42-2.16,15.56-6.49c4.14-4.33,6.21-9.89,6.21-16.7s-2.03-12.34-6.1-16.59c-4.07-4.25-9.26-6.38-15.6-6.38Z"/>
      <g>
        <path class="cls-1" d="M351.85,45.72c7.49,0,14.52,1.87,21.11,5.61,6.59,3.74,11.73,8.82,15.42,15.24,3.69,6.42,5.54,13.35,5.54,20.78s-1.86,14.49-5.58,21c-3.72,6.51-8.79,11.61-15.2,15.28-6.42,3.67-13.49,5.51-21.22,5.51-11.38,0-21.09-4.05-29.13-12.14-8.05-8.09-12.07-17.93-12.07-29.5,0-12.4,4.55-22.73,13.64-30.99,7.97-7.19,17.14-10.79,27.49-10.79ZM352.18,64.47c-6.18,0-11.33,2.15-15.45,6.45-4.12,4.3-6.17,9.81-6.17,16.52s2.03,12.49,6.1,16.77c4.07,4.28,9.22,6.42,15.45,6.42s11.42-2.16,15.56-6.49c4.14-4.33,6.21-9.89,6.21-16.7s-2.03-12.34-6.1-16.59c-4.07-4.25-9.26-6.38-15.6-6.38Z"/>
        <rect class="cls-1" x="310.85" y="35.71" width="19.42" height="91.7"/>
      </g>
      <g>
        <polygon class="cls-1" points="59.62 126.01 36.45 126.01 0 47.97 23.17 47.97 59.62 126.01"/>
        <polygon class="cls-1" points="36.22 126.01 59.39 126.01 95.84 47.97 72.66 47.97 36.22 126.01"/>
      </g>
      <g>
        <rect class="cls-1" x="188.77" y="48.98" width="23.17" height="78.04"/>
        <circle class="cls-1" cx="200.36" cy="164.16" r="13.45"/>
      </g>
      <g>
        <rect class="cls-1" x="487.14" y="48.98" width="23.17" height="78.04"/>
        <circle class="cls-1" cx="498.73" cy="13.45" r="13.45"/>
      </g>
    </g>
  </g>
</svg>